<svg xmlns="http://www.w3.org/2000/svg" viewBox="0 0 64 64">
  <!-- 箱の背面 -->
  <path d="M8 20 L32 8 L56 20 L56 48 L32 56 L8 48 Z" fill="#6366F1" />
  <!-- 箱の上面 -->
  <path d="M8 20 L32 32 L56 20 L32 8 Z" fill="#818CF8" />
  <!-- 箱の右側面 -->
  <path d="M32 32 L56 20 L56 48 L32 56 Z" fill="#4F46E5" />
  <!-- 箱の左側面 -->
  <path d="M8 20 L32 32 L32 56 L8 48 Z" fill="#6366F1" />
  <!-- 画像アイコン（箱の中から出ている感じ） -->
  <g transform="translate(18, 14)">
    <!-- 画像フレーム -->
    <rect x="0" y="0" width="28" height="22" rx="3" fill="#fff" />
    <rect x="2" y="2" width="24" height="18" rx="2" fill="#E0E7FF" />
    <!-- 山 -->
    <path d="M2 16 L10 10 L16 14 L24 6 L26 8 L26 20 L2 20 Z" fill="#818CF8" opacity="0.6"/>
    <!-- 太陽 -->
    <circle cx="20" cy="8" r="4" fill="#FBBF24" />
  </g>
</svg>
