<svg xmlns="http://www.w3.org/2000/svg" viewBox="0 0 1200 630">
  <!-- èƒŒæ™¯ã‚°ãƒ©ãƒ‡ãƒ¼ã‚·ãƒ§ãƒ³ -->
  <defs>
    <linearGradient id="bg-gradient" x1="0%" y1="0%" x2="100%" y2="100%">
      <stop offset="0%" style="stop-color:#F8FAFC"/>
      <stop offset="100%" style="stop-color:#E0E7FF"/>
    </linearGradient>
    <linearGradient id="text-gradient" x1="0%" y1="0%" x2="100%" y2="0%">
      <stop offset="0%" style="stop-color:#6366F1"/>
      <stop offset="100%" style="stop-color:#8B5CF6"/>
    </linearGradient>
  </defs>
  
  <!-- èƒŒæ™¯ -->
  <rect width="1200" height="630" fill="url(#bg-gradient)"/>
  
  <!-- ãƒ­ã‚´ï¼ˆç®± + ç”»åƒã‚¢ã‚¤ã‚³ãƒ³ï¼‰ -->
  <g transform="translate(250, 140) scale(2.5)">
    <path d="M8 20 L32 8 L56 20 L56 48 L32 56 L8 48 Z" fill="#6366F1" />
    <path d="M8 20 L32 32 L56 20 L32 8 Z" fill="#818CF8" />
    <path d="M32 32 L56 20 L56 48 L32 56 Z" fill="#4F46E5" />
    <path d="M8 20 L32 32 L32 56 L8 48 Z" fill="#6366F1" />
    <g transform="translate(18, 14)">
      <rect x="0" y="0" width="28" height="22" rx="3" fill="#fff" />
      <rect x="2" y="2" width="24" height="18" rx="2" fill="#E0E7FF" />
      <path d="M2 16 L10 10 L16 14 L24 6 L26 8 L26 20 L2 20 Z" fill="#818CF8" opacity="0.6"/>
      <circle cx="20" cy="8" r="4" fill="#FBBF24" />
    </g>
  </g>
  
  <!-- ã‚¿ã‚¤ãƒˆãƒ« -->
  <text x="480" y="320" font-family="Inter, system-ui, sans-serif" font-size="80" font-weight="800" fill="url(#text-gradient)">imgcrate</text>
  
  <!-- ã‚µãƒ–ã‚¿ã‚¤ãƒˆãƒ« -->
  <text x="480" y="390" font-family="Inter, system-ui, sans-serif" font-size="32" font-weight="500" fill="#64748B">Browser Image Editor</text>
  
  <!-- æ©Ÿèƒ½ã‚¿ã‚° -->
  <g font-family="Inter, system-ui, sans-serif" font-size="20" font-weight="500">
    <rect x="480" y="420" width="100" height="36" rx="18" fill="#E0E7FF"/>
    <text x="530" y="444" fill="#4F46E5" text-anchor="middle">Resize</text>
    
    <rect x="600" y="420" width="80" height="36" rx="18" fill="#E0E7FF"/>
    <text x="640" y="444" fill="#4F46E5" text-anchor="middle">Crop</text>
    
    <rect x="700" y="420" width="90" height="36" rx="18" fill="#E0E7FF"/>
    <text x="745" y="444" fill="#4F46E5" text-anchor="middle">Filters</text>
    
    <rect x="810" y="420" width="100" height="36" rx="18" fill="#E0E7FF"/>
    <text x="860" y="444" fill="#4F46E5" text-anchor="middle">Convert</text>
  </g>
  
  <!-- ãƒ—ãƒ©ã‚¤ãƒã‚·ãƒ¼ãƒ¡ãƒƒã‚»ãƒ¼ã‚¸ -->
  <text x="600" y="560" font-family="Inter, system-ui, sans-serif" font-size="22" fill="#94A3B8" text-anchor="middle">ðŸ”’ All processing done locally - Your images never leave your browser</text>
</svg>
